<?xml version="1.0" standalone="no"?>
<!DOCTYPE svg PUBLIC "-//W3C//DTD SVG 20010904//EN"
 "http://www.w3.org/TR/2001/REC-SVG-20010904/DTD/svg10.dtd">
<svg version="1.0" xmlns="http://www.w3.org/2000/svg"
 width="846.000000pt" height="846.000000pt" viewBox="0 0 846.000000 846.000000"
 preserveAspectRatio="xMidYMid meet">
<metadata>
Created by potrace 1.14, written by Peter Selinger 2001-2017
</metadata>
<g transform="translate(0.000000,846.000000) scale(0.100000,-0.100000)"
fill="#000000" stroke="none">
<path d="M3505 7436 c-111 -27 -232 -120 -287 -223 -60 -109 -71 -262 -27
-378 37 -101 92 -167 194 -236 106 -71 222 -203 288 -329 21 -41 84 -205 91
-241 31 -139 37 -171 34 -173 -1 -2 -52 -20 -113 -40 -137 -47 -299 -128 -433
-216 -61 -40 -105 -63 -107 -57 -2 7 -12 68 -21 136 -25 190 -60 272 -153 359
-171 161 -447 163 -620 6 -155 -141 -196 -352 -106 -539 68 -141 207 -240 365
-259 107 -13 193 -26 201 -31 4 -3 -29 -69 -75 -148 -45 -78 -97 -170 -116
-205 -55 -103 -125 -152 -219 -152 -44 0 -318 72 -391 102 -177 75 -282 158
-401 315 -109 144 -182 199 -301 224 -48 11 -155 8 -222 -6 -113 -23 -231
-118 -286 -228 -112 -229 -50 -462 160 -602 77 -51 141 -71 230 -74 85 -2 161
20 325 94 90 40 254 62 347 45 23 -4 61 -11 83 -14 57 -8 94 -15 140 -28 22
-5 49 -12 60 -14 90 -18 200 -56 231 -79 20 -15 45 -48 56 -73 18 -40 20 -59
14 -166 -5 -111 -16 -262 -21 -311 -1 -11 -3 -32 -4 -46 l-1 -26 -120 49 c-66
27 -139 51 -163 54 -23 3 -54 7 -69 9 -33 4 -152 -19 -199 -39 -19 -8 -58 -32
-87 -53 -275 -207 -236 -630 71 -777 172 -82 345 -63 492 55 22 18 78 81 125
141 47 59 87 108 90 108 3 0 46 -64 94 -142 49 -79 103 -165 121 -193 18 -27
51 -81 75 -119 l42 -69 -24 -21 c-45 -42 -164 -124 -213 -149 -54 -27 -160
-62 -216 -71 -19 -3 -45 -8 -58 -11 -14 -2 -61 -9 -105 -16 -167 -22 -279 -99
-350 -238 -46 -88 -65 -227 -45 -316 17 -76 68 -163 131 -226 187 -184 486
-174 663 23 72 80 108 175 120 315 12 136 71 300 147 410 44 65 112 143 123
143 4 0 43 -29 88 -64 175 -135 355 -228 607 -314 34 -11 54 -24 54 -33 -1 -8
-11 -50 -23 -94 -12 -44 -24 -87 -26 -96 -46 -211 -178 -401 -383 -554 -93
-70 -148 -139 -179 -228 -29 -83 -36 -151 -24 -227 37 -230 248 -401 478 -386
234 15 426 203 438 429 4 74 -12 140 -58 243 -20 45 -46 119 -57 165 -24 96
-34 284 -20 369 5 30 12 69 14 85 3 17 17 71 32 120 14 50 29 98 31 108 3 9 8
17 12 18 19 2 246 16 421 24 52 3 128 7 168 10 l73 6 -7 -28 c-4 -15 -10 -35
-14 -43 -5 -8 -19 -55 -32 -105 -39 -146 -25 -258 47 -370 136 -212 370 -277
600 -169 155 74 248 229 248 414 -1 183 -73 295 -275 423 -54 34 -98 64 -97
67 0 3 73 56 162 119 l162 113 50 -55 c116 -127 195 -315 220 -517 13 -103 17
-124 36 -175 60 -160 245 -278 434 -278 125 0 237 52 330 155 122 133 152 297
86 469 -43 114 -112 191 -213 242 -63 31 -98 40 -244 66 -143 26 -147 27 -223
52 -102 34 -186 84 -258 152 -36 35 -41 43 -31 61 6 12 78 134 160 272 145
244 151 252 201 280 72 39 126 36 317 -15 187 -51 317 -111 419 -194 68 -56
94 -85 213 -237 138 -176 380 -225 580 -118 159 85 247 248 235 439 -7 118
-44 199 -130 283 -115 113 -256 160 -397 134 -25 -5 -94 -28 -155 -53 -273
-110 -408 -113 -770 -15 -204 55 -245 99 -247 268 -2 133 4 272 11 272 3 0 29
-9 58 -20 28 -10 62 -21 75 -24 13 -3 43 -9 69 -14 156 -31 317 24 411 139
134 165 149 390 39 555 -64 95 -148 158 -251 188 -174 50 -339 4 -477 -133
-37 -36 -68 -61 -70 -56 -2 6 -27 47 -56 92 -29 45 -81 129 -116 185 -36 57
-81 129 -102 160 l-37 56 76 61 c138 109 286 171 467 195 103 14 121 17 171
31 65 19 160 82 202 135 92 114 131 309 87 440 -55 167 -227 304 -397 317 -89
7 -158 -7 -246 -50 -157 -76 -238 -199 -258 -392 -12 -116 -22 -164 -55 -253
-40 -109 -102 -211 -178 -289 l-31 -33 -232 146 c-128 81 -239 151 -245 156
-10 8 0 25 40 72 74 85 96 118 117 180 26 73 31 100 30 181 0 98 -26 174 -93
269 -156 218 -479 237 -682 40 -136 -131 -151 -271 -64 -583 3 -11 -17 -15
-101 -17 -58 -1 -123 -5 -146 -8 -78 -11 -116 15 -129 87 -3 12 -16 67 -29
122 -14 55 -27 114 -31 132 -8 39 -8 229 -1 263 8 37 16 73 20 95 5 23 41 120
79 210 47 111 51 216 12 329 -77 225 -313 350 -550 292z m-1 -2621 c49 -10
140 -62 191 -108 173 -156 193 -419 45 -606 -128 -162 -371 -212 -554 -113
-97 52 -200 180 -223 277 -27 112 -7 249 50 344 58 97 191 192 289 208 18 3
34 6 36 8 5 5 134 -3 166 -10z m1636 -21 c156 -85 184 -294 55 -413 -56 -52
-106 -72 -177 -72 -123 -1 -224 81 -253 204 -26 115 37 240 147 291 73 33 156
29 228 -10z m-533 -1064 c87 -40 156 -108 198 -194 35 -71 56 -166 49 -218 -2
-15 -6 -40 -8 -55 -11 -78 -69 -178 -141 -241 -175 -154 -447 -136 -598 39
-51 59 -50 57 -74 114 -71 168 -36 343 93 472 128 128 314 160 481 83z"/>
</g>
</svg>
